:FULLY-SPECIFIED
:FORCE-ALL-JOINTS-BE-3DOF
:DEGREES
68
root 5.94806 16.761 -28.0534 11.0367 2.90475 -3.91493
lfemur -35.0331 14.4828 -17.4017
ltibia 51.379 -0 0
lfoot -21.2959 -9.47628 0.0513857
ltoes 31.2043 -0 0
rfemur -16.815 -0.527362 21.9002
rtibia 30.05 -0 0
rfoot -27.0734 -18.021 0.000219583
rtoes -8.68315 0 0
lowerback -3.70428 2.57256 3.22703
upperback -1.47491 3.32023 -0.175023
thorax 0.749104 1.6548 -1.83941
lowerneck -10.0398 -2.51491 2.27376
upperneck -5.45905 -3.51666 2.03132
head -0.0474896 -1.77388 0.150353
lclavicle 3.34704e-14 1.61016e-14 0
lhumerus -40.6929 -12.0478 93.8219
lradius 43.9934 -0 0
lwrist 7.88462 0 0
lhand -11.9248 2.14563 0.00048304
lfingers 7.12502 -0 0
lthumb 14.1294 31.6447 0.00036165
rclavicle 3.34704e-14 1.61016e-14 0
rhumerus -39.1512 1.80174 -91.7101
rradius 42.4675 -0 0
rwrist 7.54175 0 0
rhand -24.9078 -21.9461 0.000227092
rfingers 7.12502 -0 0
rthumb 1.60067 -51.9197 0.000222898
69
root 5.9675 16.7589 -28.0235 11.0743 2.971 -4.03734
lfemur -35.3556 14.3585 -17.0736
ltibia 51.1321 -0 0
lfoot -21.1488 -8.45097 0.0632595
ltoes 30.3744 -0 0
rfemur -16.6414 -0.543799 21.9753
rtibia 29.8723 -0 0
rfoot -27.0823 -18.093 0.000270257
rtoes -8.80741 0 0
lowerback -3.70894 2.64464 3.21342
upperback -1.5139 3.41704 -0.138592
thorax 0.713439 1.70239 -1.79101
lowerneck -10.0755 -2.57426 2.34599
upperneck -5.45549 -3.60384 1.99443
head -0.0432184 -1.8185 0.12441
lclavicle 3.34704e-14 1.61016e-14 0
lhumerus -40.8128 -11.7921 93.6679
lradius 44.0295 -0 0
lwrist 7.9697 0 0
lhand -11.9942 2.1252 0.000594511
lfingers 7.12502 -0 0
lthumb 14.0625 31.6288 0.000445108
rclavicle 3.34704e-14 1.61016e-14 0
rhumerus -39.0039 1.9367 -91.5942
rradius 42.5315 -0 0
rwrist 7.5593 0 0
rhand -24.8707 -21.9281 0.000279498
rfingers 7.12502 -0 0
rthumb 1.63644 -51.9014 0.000274337
70
root 5.98694 16.7568 -27.9935 11.1118 3.03733 -4.15972
lfemur -35.6786 14.2361 -16.745
ltibia 50.8851 -0 0
lfoot -21.0015 -7.42563 0.0724987
ltoes 29.5444 -0 0
rfemur -16.4678 -0.560463 22.0503
rtibia 29.6946 -0 0
rfoot -27.0913 -18.1651 0.000309669
rtoes -8.93168 0 0
lowerback -3.71363 2.71671 3.1998
upperback -1.55283 3.51388 -0.102223
thorax 0.677813 1.75001 -1.74264
lowerneck -10.1112 -2.63356 2.41825
upperneck -5.45186 -3.69101 1.95753
head -0.0389268 -1.86313 0.0984634
lclavicle 3.34704e-14 1.61016e-14 0
lhumerus -40.9332 -11.5366 93.5135
lradius 44.0655 -0 0
lwrist 8.05479 0 0
lhand -12.0637 2.10478 0.000681212
lfingers 7.12502 -0 0
lthumb 13.9955 31.613 0.00051002
rclavicle 3.34704e-14 1.61016e-14 0
rhumerus -38.8562 2.07136 -91.478
rradius 42.5954 -0 0
rwrist 7.57684 0 0
rhand -24.8337 -21.91 0.000320258
rfingers 7.12502 -0 0
rthumb 1.67222 -51.8831 0.000314344
71
root 6.00638 16.7547 -27.9636 11.1492 3.10374 -4.28206
lfemur -36.0022 14.1155 -16.4159
ltibia 50.6382 -0 0
lfoot -20.854 -6.40026 0.0791003
ltoes 28.7145 -0 0
rfemur -16.2942 -0.577355 22.1253
rtibia 29.5169 -0 0
rfoot -27.1002 -18.2371 0.000337821
rtoes -9.05594 0 0
lowerback -3.71833 2.78878 3.18618
upperback -1.5917 3.61074 -0.0659164
thorax 0.642227 1.79766 -1.6943
lowerneck -10.1471 -2.69282 2.49056
upperneck -5.44818 -3.77818 1.92062
head -0.0346149 -1.90775 0.0725127
lclavicle 3.34704e-14 1.61016e-14 0
lhumerus -41.0543 -11.2815 93.3587
lradius 44.1016 -0 0
lwrist 8.13987 0 0
lhand -12.1332 2.08435 0.00074314
lfingers 7.12502 -0 0
lthumb 13.9285 31.5971 0.000556386
rclavicle 3.34704e-14 1.61016e-14 0
rhumerus -38.7083 2.20572 -91.3613
rradius 42.6593 -0 0
rwrist 7.59438 0 0
rhand -24.7966 -21.892 0.000349372
rfingers 7.12502 -0 0
rthumb 1.708 -51.8648 0.000342921
72
root 6.02581 16.7526 -27.9337 11.1864 3.17023 -4.40437
lfemur -36.3264 13.9967 -16.0863
ltibia 50.3913 -0 0
lfoot -20.7065 -5.37488 0.0830621
ltoes 27.8845 -0 0
rfemur -16.1206 -0.594474 22.2003
rtibia 29.3391 -0 0
rfoot -27.1092 -18.3092 0.000354712
rtoes -9.18021 0 0
lowerback -3.72305 2.86086 3.17255
upperback -1.63052 3.70762 -0.0296718
thorax 0.60668 1.84534 -1.64599
lowerneck -10.183 -2.75203 2.56291
upperneck -5.44445 -3.86535 1.8837
head -0.0302827 -1.95237 0.0465581
lclavicle 3.34704e-14 1.61016e-14 0
lhumerus -41.1759 -11.0267 93.2035
lradius 44.1376 -0 0
lwrist 8.22495 0 0
lhand -12.2027 2.06393 0.000780298
lfingers 7.12502 -0 0
lthumb 13.8616 31.5812 0.000584205
rclavicle 3.34704e-14 1.61016e-14 0
rhumerus -38.5601 2.33977 -91.2444
rradius 42.7232 -0 0
rwrist 7.61192 0 0
rhand -24.7596 -21.874 0.000366841
rfingers 7.12502 -0 0
rthumb 1.74377 -51.8465 0.000360067
